# xmcd
#
# Track frame offsets:
#	150
#	24711
#	52162
#	75065
#	96168
#	119083
#	137717
#	159500
#	179282
#	198816
#	221586
#	266187
#	288130
#
# Disc length: 4224 seconds
#
# Revision: 0
# Processed by: cddbd v1.5.1PL0 Copyright (c) Steve Scherf et al.
# Submitted via: dBpowerAMP V4.0
#
DISCID=b8107e0d
DTITLE=Rod Piazza and The Mighty Flyers - Keepin´ It Real
DYEAR=1900
DGENRE=
TTITLE0=Track01 Big Blues Party
TTITLE1=Track02 Good Morning Little Schoolgirl
TTITLE2=Track03 Baby Please Don´t Go
TTITLE3=Track04 Just Like A Woman
TTITLE4=Track05 Pretty Thing
TTITLE5=Track06 Tick Tock
TTITLE6=Track07 Moving In A West Coast Way
TTITLE7=Track08 Ain´t Nothing Happening
TTITLE8=Track09 Ain´t Nothing Shakin
TTITLE9=Track10 West Coast Midnight Blues
TTITLE10=Track11 Buzzin
TTITLE11=Track12 Thats What She Hollered
TTITLE12=Track13 Devils Foot
EXTD=
EXTT0=
EXTT1=
EXTT2=
EXTT3=
EXTT4=
EXTT5=
EXTT6=
EXTT7=
EXTT8=
EXTT9=
EXTT10=
EXTT11=
EXTT12=
PLAYORDER=
